<svg viewBox="0 0 32 32" xmlns="http://www.w3.org/2000/svg">
<path d="M6.75 12C6.75 13.0355 5.91053 13.875 4.875 13.875C3.83947 13.875 3 13.0355 3 12C3 10.9645 3.83947 10.125 4.875 10.125C5.91053 10.125 6.75 10.9645 6.75 12Z"/>
<path d="M13.875 12C13.875 13.0355 13.0355 13.875 12 13.875C10.9645 13.875 10.125 13.0355 10.125 12C10.125 10.9645 10.9645 10.125 12 10.125C13.0355 10.125 13.875 10.9645 13.875 12Z"/>
<path d="M19.125 13.875C20.1605 13.875 21 13.0355 21 12C21 10.9645 20.1605 10.125 19.125 10.125C18.0895 10.125 17.25 10.9645 17.25 12C17.25 13.0355 18.0895 13.875 19.125 13.875Z"/>
</svg>
