<svg viewBox="0 0 32 32" xmlns="http://www.w3.org/2000/svg">
<path d="M18.0003 17.1156L21.2178 13.8906L22.2828 14.9556L19.0578 18.1731L22.2828 21.3906L21.2178 22.4556L18.0003 19.2381L14.7828 22.4556L13.7178 21.3906L16.9428 18.1731L13.7178 14.9556L14.7828 13.8906L18.0003 17.1156Z"/>
<path d="M10.5 1.5C5.53714 1.5 1.5 5.53714 1.5 10.5C1.5 15.4629 5.53714 19.5 10.5 19.5V18.2143C6.24429 18.2143 2.78571 14.7557 2.78571 10.5C2.78571 6.24429 6.24429 2.78571 10.5 2.78571C14.7557 2.78571 18.2143 6.24429 18.2143 10.5H19.5C19.5 5.53714 15.4629 1.5 10.5 1.5Z"/>
<path fill-rule="evenodd" clip-rule="evenodd" d="M9.15616 6.89418L13.8362 9.81918H13.8297C14.0676 9.96704 14.209 10.2242 14.209 10.5006C14.209 10.777 14.0676 11.0342 13.8297 11.182L9.14972 14.107C9.02115 14.1906 8.87329 14.2292 8.72544 14.2292C8.59687 14.2292 8.46188 14.1906 8.33973 14.1263C8.08259 13.9849 7.92188 13.7149 7.92188 13.4256V7.57561C7.92188 7.28633 8.08259 7.01633 8.33973 6.8749C8.59688 6.73347 8.91187 6.7399 9.15616 6.89418ZM9.21402 8.4499V12.5642L12.499 10.507L9.21402 8.4499Z"/>
</svg>
