<svg viewBox="0 0 32 32" xmlns="http://www.w3.org/2000/svg">
<path fill-rule="evenodd" clip-rule="evenodd" d="M12 12.5737L15.5113 15.0001L12 17.4264V12.5737ZM11.7833 10.0651C11.4042 9.94157 11.0034 10.0003 10.6852 10.1877C10.2722 10.431 10 10.8831 10 11.3983V18.5951C10 19.114 10.2739 19.5678 10.6885 19.8118C11.1084 20.0589 11.6761 20.0847 12.147 19.7558L17.4361 16.1011L17.4431 16.0961C18.1856 15.5639 18.1856 14.4363 17.4431 13.904L17.4361 13.899L11.8877 10.0651H11.7833Z"/>
<path fill-rule="evenodd" clip-rule="evenodd" d="M13 6C8.02944 6 4 10.0294 4 15C4 19.9706 8.02944 24 13 24C13.6177 24 14.22 23.9379 14.8011 23.82L15.1989 25.78C14.4876 25.9244 13.7521 26 13 26C6.92487 26 2 21.0751 2 15C2 8.92487 6.92487 4 13 4C18.7045 4 23.3937 8.34148 23.9457 13.9012L21.9555 14.0988C21.5041 9.55188 17.6662 6 13 6Z"/>
<path fill-rule="evenodd" clip-rule="evenodd" d="M29.7071 18.7071L19.7071 28.7071L18.2929 27.2929L28.2929 17.2929L29.7071 18.7071Z"/>
<path fill-rule="evenodd" clip-rule="evenodd" d="M19.7071 17.2929L29.7071 27.2929L28.2929 28.7071L18.2929 18.7071L19.7071 17.2929Z"/>
</svg>
