<svg viewBox="0 0 32 32" xmlns="http://www.w3.org/2000/svg">
<path fill-rule="evenodd" clip-rule="evenodd" d="M19.67 25.5858L28.2929 16.9629L29.7071 18.3771L19.67 28.4142L14.2929 23.0371L15.7071 21.6229L19.67 25.5858Z"/>
<path fill-rule="evenodd" clip-rule="evenodd" d="M12 12.5737L15.5113 15.0001L12 17.4264V12.5737ZM11.7833 10.0651C11.4042 9.94157 11.0034 10.0003 10.6852 10.1877C10.2722 10.431 10 10.8831 10 11.3983V18.5951C10 19.114 10.2739 19.5678 10.6885 19.8118C11.1084 20.0589 11.6761 20.0847 12.147 19.7558L17.4361 16.1011L17.4431 16.0961C18.1856 15.5639 18.1856 14.4363 17.4431 13.904L17.4361 13.899L11.8877 10.0651H11.7833Z"/>
<path fill-rule="evenodd" clip-rule="evenodd" d="M13 6C8.02944 6 4 10.0294 4 15C4 19.353 7.09132 22.9861 11.1989 23.82L10.8011 25.78C5.77972 24.7607 2 20.3229 2 15C2 8.92487 6.92487 4 13 4C19.0751 4 24 8.92487 24 15C24 15.3705 23.9816 15.7371 23.9457 16.0988L21.9555 15.9012C21.9849 15.6051 22 15.3045 22 15C22 10.0294 17.9706 6 13 6Z"/>
</svg>
